<svg width="7" height="8" viewBox="0 0 7 8" fill="none" xmlns="http://www.w3.org/2000/svg">
<path d="M6.67649 5.4618V6.97746C6.67649 7.18198 6.50484 7.35363 6.30032 7.34267C5.24484 7.28059 4.2551 6.9665 3.38953 6.46615C2.39249 5.88911 1.5671 5.06372 0.990056 4.06667C0.486056 3.20111 0.175621 2.21137 0.113534 1.15589C0.102578 0.951369 0.27423 0.779716 0.478752 0.779716H1.9944C2.16971 0.779716 2.31945 0.90389 2.35232 1.07189L2.62258 2.41589C2.64814 2.53641 2.60797 2.66059 2.52397 2.74459L1.59997 3.66493C2.12223 4.57798 2.87823 5.33398 3.79127 5.85624L4.71162 4.93589C4.79927 4.84824 4.92345 4.81172 5.04032 4.83728L6.38066 5.10389C6.55232 5.13676 6.67649 5.2865 6.67649 5.4618ZM1.26397 2.96737L1.86658 2.36476L1.69493 1.51015H0.880491C0.942578 2.0105 1.07406 2.49989 1.26397 2.96737ZM5.94606 5.76128L5.09145 5.58963L4.48884 6.19224C4.95632 6.38215 5.44936 6.50998 5.94606 6.57572V5.76128Z" fill="#C80462"/>
</svg>
