<svg width="8" height="7" viewBox="0 0 8 7" fill="none" xmlns="http://www.w3.org/2000/svg">
<path fill-rule="evenodd" clip-rule="evenodd" d="M5.31357 0.148347C5.16224 0.0730994 4.95835 0.00401026 4.72112 0.0609842C4.60073 0.089898 4.49572 0.145936 4.4031 0.214507C3.45698 -0.0178969 2.43196 0.109933 1.61118 0.561436C0.705251 1.05978 0.0401611 1.96146 0.0401611 3.18678C0.0401611 4.09848 0.453646 4.96617 1.19345 5.55638V6.31621V6.74849L1.62568 6.75442L2.02506 6.75991L2.02506 6.75995H2.03108H2.29558V6.76L2.3018 6.75991L2.68778 6.75442L3.1198 6.74828V6.31621V6.30191C3.30297 6.31723 3.48511 6.31849 3.66368 6.3052V6.31621V6.74871L4.09614 6.75443L4.5112 6.75991L4.5112 6.75995H4.51699H4.78143V6.76L4.78792 6.7599L5.15827 6.75442L5.59003 6.74802V6.31621V5.55513C5.97657 5.24421 6.28655 4.84981 6.48892 4.42586H6.77428H7.20031L7.21235 3.99999L7.25726 2.41152L7.26989 1.96487L6.82308 1.9609L6.48891 1.95792C6.31013 1.58715 6.05065 1.24208 5.76542 0.959488C5.76088 0.914677 5.75423 0.864424 5.74443 0.811735C5.72742 0.720297 5.69775 0.603695 5.64203 0.490975C5.58751 0.380659 5.48861 0.235384 5.31357 0.148347ZM2.2433 5.79032V5.88345H2.06995V5.33569V5.10446L1.87909 4.97394C1.25615 4.54794 0.916665 3.88157 0.916665 3.18678C0.916665 2.32151 1.37047 1.69421 2.03364 1.32941C2.71002 0.957338 3.595 0.868211 4.38416 1.1192L4.648 1.20312L4.8371 1.00089C4.85325 0.98362 4.86746 0.969323 4.87985 0.957524L4.88271 0.972033C4.89122 1.01778 4.8955 1.06421 4.89744 1.10064C4.89839 1.1183 4.89871 1.13229 4.89882 1.14104L4.89886 1.1497L4.89886 1.1501L4.89885 1.15051L4.89885 1.15055L4.89479 1.34955L5.04425 1.48375C5.37253 1.7785 5.65273 2.16705 5.78274 2.53841L5.88451 2.82908L6.19248 2.83182L6.36848 2.83339L6.34824 3.54935H6.19638H5.88517L5.78261 3.84318C5.63522 4.26542 5.32249 4.6852 4.90274 4.97507L4.71353 5.10574V5.33569V5.88345H4.54018V5.79032V5.22105L3.98984 5.36665C3.63532 5.46044 3.21433 5.46382 2.78039 5.36336L2.2433 5.23903V5.79032ZM4.85428 0.875673L4.85526 0.877376C4.85493 0.876743 4.85467 0.876294 4.85451 0.876017C4.85436 0.875769 4.85428 0.875658 4.85428 0.875673ZM4.55633 2.58908V2.58908C4.55633 2.61342 4.54863 2.66184 4.5065 2.70913C4.45943 2.76197 4.39834 2.78049 4.35664 2.78049C4.31888 2.78049 4.27142 2.76549 4.23231 2.72723C4.19376 2.68951 4.17344 2.63867 4.17344 2.58908H4.35664H4.53865L4.35664 2.58902L4.17344 2.58896C4.17346 2.53943 4.19377 2.48857 4.23236 2.45084C4.27149 2.41257 4.31895 2.39761 4.35664 2.39761C4.39826 2.39761 4.45933 2.41608 4.50643 2.46891C4.54862 2.51624 4.55633 2.56472 4.55633 2.58908ZM4.35664 2.05007C4.20807 2.05007 4.06423 2.10752 3.96111 2.22327C3.86293 2.33348 3.82591 2.4688 3.82591 2.58908C3.82591 2.70941 3.86296 2.84475 3.9612 2.95496C4.06436 3.07067 4.20819 3.12803 4.35664 3.12803C4.65752 3.12803 4.90377 2.89438 4.90386 2.58919V2.58908C4.90386 2.28394 4.65767 2.05007 4.35664 2.05007Z" fill="#038A39"/>
</svg>
