<svg width="11" height="7" viewBox="0 0 11 7" fill="none" xmlns="http://www.w3.org/2000/svg">
    <path
        d="M8.80262 5.87305H0.652222V6.83305H10.2522V5.87305H8.80262ZM9.77222 5.39305C9.64262 3.43945 8.21222 1.84105 6.33542 1.45225C6.38342 1.33705 6.41222 1.20745 6.41222 1.07305C6.41222 0.54505 5.98022 0.11305 5.45222 0.11305C4.92422 0.11305 4.49222 0.54505 4.49222 1.07305C4.49222 1.20745 4.52102 1.33705 4.56902 1.45225C2.69222 1.84105 1.26182 3.43945 1.13222 5.39305H9.77222ZM5.45222 2.31145C6.86822 2.31145 8.07782 3.18985 8.57222 4.42825H2.33222C2.82662 3.18985 4.03622 2.31145 5.45222 2.31145Z"
        fill="#C89104" />
</svg>