<svg width="7" height="8" viewBox="0 0 7 8" fill="none" xmlns="http://www.w3.org/2000/svg">
<path d="M6.05811 2.07537H5.32768C5.32768 1.26824 4.67394 0.6145 3.86681 0.6145C3.05968 0.6145 2.40594 1.26824 2.40594 2.07537H1.6755C1.27376 2.07537 0.945068 2.40407 0.945068 2.8058V7.18841C0.945068 7.59015 1.27376 7.91885 1.6755 7.91885H6.05811C6.45985 7.91885 6.78855 7.59015 6.78855 7.18841V2.8058C6.78855 2.40407 6.45985 2.07537 6.05811 2.07537ZM3.86681 1.34493C4.26855 1.34493 4.59724 1.67363 4.59724 2.07537H3.13637C3.13637 1.67363 3.46507 1.34493 3.86681 1.34493ZM6.05811 7.18841H1.6755V2.8058H2.40594V3.53624C2.40594 3.73711 2.57029 3.90146 2.77116 3.90146C2.97202 3.90146 3.13637 3.73711 3.13637 3.53624V2.8058H4.59724V3.53624C4.59724 3.73711 4.76159 3.90146 4.96246 3.90146C5.16333 3.90146 5.32768 3.73711 5.32768 3.53624V2.8058H6.05811V7.18841Z" fill="#5A04C8"/>
</svg>
