<svg width="9" height="9" viewBox="0 0 9 9" fill="none" xmlns="http://www.w3.org/2000/svg">
<path d="M8.4756 7.2165L5.15943 3.90032C5.49908 3.04571 5.32377 2.03771 4.63351 1.3438C3.79351 0.5038 2.48603 0.427104 1.55473 1.10641L2.95716 2.5125L2.43856 3.02745L1.03977 1.62867C0.360469 2.55632 0.437165 3.86745 1.27716 4.7038C1.95647 5.3831 2.94621 5.56206 3.79351 5.24432L7.12064 8.57145C7.26308 8.71389 7.49316 8.71389 7.6356 8.57145L8.4756 7.73145C8.62169 7.59267 8.62169 7.36258 8.4756 7.2165ZM7.37995 7.80084L3.92499 4.34589C3.70221 4.51024 3.45386 4.60884 3.19456 4.64537C2.69786 4.71841 2.1756 4.56867 1.79577 4.18884C1.44882 3.84554 1.28812 3.38537 1.31369 2.9325L2.44221 4.06102L3.99073 2.5125L2.86221 1.38397C3.31508 1.35841 3.7716 1.5191 4.11856 1.86241C4.51299 2.25684 4.66273 2.80102 4.57143 3.30867C4.5276 3.56797 4.41803 3.80902 4.25003 4.0245L7.70134 7.4758L7.37995 7.80084Z" fill="#0466C8"/>
</svg>
